<mxfile host="65bd71144e">
    <diagram id="MjmMw98HuR0RER6gY7It" name="ページ1">
        <mxGraphModel dx="1882" dy="430" grid="1" gridSize="10" guides="1" tooltips="1" connect="1" arrows="1" fold="1" page="1" pageScale="1" pageWidth="1169" pageHeight="827" background="none" math="0" shadow="0">
            <root>
                <mxCell id="0"/>
                <mxCell id="1" parent="0"/>
                <mxCell id="83" value="" style="edgeStyle=elbowEdgeStyle;elbow=horizontal;endArrow=none;html=1;fontSize=14;startArrow=none;" parent="1" edge="1">
                    <mxGeometry width="50" height="50" relative="1" as="geometry">
                        <mxPoint x="910" y="1120" as="sourcePoint"/>
                        <mxPoint x="-320" y="280" as="targetPoint"/>
                        <Array as="points">
                            <mxPoint x="-390" y="740"/>
                            <mxPoint x="-400" y="290"/>
                            <mxPoint x="-390" y="500"/>
                        </Array>
                    </mxGeometry>
                </mxCell>
                <mxCell id="2" value="グローバルナビゲーション（ログイン中）" style="rounded=0;whiteSpace=wrap;html=1;fillColor=#ffcd28;strokeColor=#d79b00;gradientColor=#ffa500;" parent="1" vertex="1">
                    <mxGeometry x="150" y="40" width="480" height="60" as="geometry"/>
                </mxCell>
                <mxCell id="3" value="「TOP」&lt;br&gt;クリック" style="rounded=0;whiteSpace=wrap;html=1;" parent="1" vertex="1">
                    <mxGeometry x="150" y="100" width="120" height="60" as="geometry"/>
                </mxCell>
                <mxCell id="6" value="「ログアウト」&lt;br&gt;クリック" style="rounded=0;whiteSpace=wrap;html=1;" parent="1" vertex="1">
                    <mxGeometry x="510" y="100" width="120" height="60" as="geometry"/>
                </mxCell>
                <mxCell id="7" value="グローバルナビゲーション&lt;br&gt;（ログアウト中）" style="rounded=0;whiteSpace=wrap;html=1;fillColor=#ffcd28;gradientColor=#ffa500;strokeColor=#d79b00;" parent="1" vertex="1">
                    <mxGeometry x="880" y="40" width="240" height="60" as="geometry"/>
                </mxCell>
                <mxCell id="8" value="「アカウント登録」&lt;br&gt;クリック" style="rounded=0;whiteSpace=wrap;html=1;" parent="1" vertex="1">
                    <mxGeometry x="1000" y="100" width="120" height="60" as="geometry"/>
                </mxCell>
                <mxCell id="9" value="「ログイン」&lt;br&gt;クリック" style="rounded=0;whiteSpace=wrap;html=1;" parent="1" vertex="1">
                    <mxGeometry x="880" y="100" width="120" height="60" as="geometry"/>
                </mxCell>
                <mxCell id="11" value="発注TOP画面" style="rounded=0;whiteSpace=wrap;html=1;fillColor=#dae8fc;gradientColor=#7ea6e0;strokeColor=#6c8ebf;" parent="1" vertex="1">
                    <mxGeometry x="-280" y="240" width="120" height="60" as="geometry"/>
                </mxCell>
                <mxCell id="12" value="&lt;span style=&quot;font-size: 14px&quot;&gt;商品をクリック&lt;/span&gt;" style="rounded=0;whiteSpace=wrap;html=1;" parent="1" vertex="1">
                    <mxGeometry x="-280" y="300" width="120" height="60" as="geometry"/>
                </mxCell>
                <mxCell id="15" value="ログイン画面" style="rounded=0;whiteSpace=wrap;html=1;fillColor=#dae8fc;gradientColor=#7ea6e0;strokeColor=#6c8ebf;" parent="1" vertex="1">
                    <mxGeometry x="740" y="240" width="120" height="60" as="geometry"/>
                </mxCell>
                <mxCell id="16" value="[ログイン」&lt;br&gt;クリック" style="rounded=0;whiteSpace=wrap;html=1;" parent="1" vertex="1">
                    <mxGeometry x="740" y="300" width="120" height="60" as="geometry"/>
                </mxCell>
                <mxCell id="18" value="" style="edgeStyle=elbowEdgeStyle;elbow=vertical;endArrow=classic;html=1;entryX=0.75;entryY=0;entryDx=0;entryDy=0;exitX=0.5;exitY=1;exitDx=0;exitDy=0;" parent="1" source="9" target="15" edge="1">
                    <mxGeometry width="50" height="50" relative="1" as="geometry">
                        <mxPoint x="780" y="390" as="sourcePoint"/>
                        <mxPoint x="830" y="340" as="targetPoint"/>
                    </mxGeometry>
                </mxCell>
                <mxCell id="21" value="" style="edgeStyle=elbowEdgeStyle;elbow=vertical;endArrow=classic;html=1;entryX=0.25;entryY=0;entryDx=0;entryDy=0;exitX=0.5;exitY=1;exitDx=0;exitDy=0;" parent="1" source="6" target="15" edge="1">
                    <mxGeometry width="50" height="50" relative="1" as="geometry">
                        <mxPoint x="780" y="390" as="sourcePoint"/>
                        <mxPoint x="830" y="340" as="targetPoint"/>
                    </mxGeometry>
                </mxCell>
                <mxCell id="22" value="&lt;font style=&quot;font-size: 14px&quot;&gt;失敗&lt;/font&gt;" style="curved=1;endArrow=classic;html=1;" parent="1" edge="1">
                    <mxGeometry width="50" height="50" relative="1" as="geometry">
                        <mxPoint x="670" y="590" as="sourcePoint"/>
                        <mxPoint x="670" y="540" as="targetPoint"/>
                        <Array as="points">
                            <mxPoint x="720" y="590"/>
                            <mxPoint x="720" y="540"/>
                            <mxPoint x="670" y="540"/>
                        </Array>
                    </mxGeometry>
                </mxCell>
                <mxCell id="24" value="&lt;font style=&quot;font-size: 14px&quot;&gt;失敗&lt;/font&gt;" style="curved=1;endArrow=classic;html=1;" parent="1" edge="1">
                    <mxGeometry width="50" height="50" relative="1" as="geometry">
                        <mxPoint x="860" y="330" as="sourcePoint"/>
                        <mxPoint x="860" y="280" as="targetPoint"/>
                        <Array as="points">
                            <mxPoint x="910" y="330"/>
                            <mxPoint x="910" y="280"/>
                            <mxPoint x="860" y="280"/>
                        </Array>
                    </mxGeometry>
                </mxCell>
                <mxCell id="25" value="&lt;font style=&quot;font-size: 14px&quot;&gt;失敗&lt;/font&gt;" style="curved=1;endArrow=classic;html=1;" parent="1" edge="1">
                    <mxGeometry width="50" height="50" relative="1" as="geometry">
                        <mxPoint x="1119" y="330" as="sourcePoint"/>
                        <mxPoint x="1119" y="280" as="targetPoint"/>
                        <Array as="points">
                            <mxPoint x="1150" y="310"/>
                            <mxPoint x="1119" y="280"/>
                        </Array>
                    </mxGeometry>
                </mxCell>
                <mxCell id="26" value="「登録する」&lt;br&gt;クリック" style="rounded=0;whiteSpace=wrap;html=1;fontSize=14;" parent="1" vertex="1">
                    <mxGeometry x="1000" y="300" width="120" height="60" as="geometry"/>
                </mxCell>
                <mxCell id="27" value="アカウント&lt;br&gt;登録画面" style="rounded=0;whiteSpace=wrap;html=1;fontSize=14;fillColor=#dae8fc;gradientColor=#7ea6e0;strokeColor=#6c8ebf;" parent="1" vertex="1">
                    <mxGeometry x="1000" y="240" width="120" height="60" as="geometry"/>
                </mxCell>
                <mxCell id="29" value="" style="endArrow=classic;html=1;fontSize=14;exitX=0.5;exitY=1;exitDx=0;exitDy=0;entryX=0.5;entryY=0;entryDx=0;entryDy=0;" parent="1" source="8" target="27" edge="1">
                    <mxGeometry width="50" height="50" relative="1" as="geometry">
                        <mxPoint x="990" y="380" as="sourcePoint"/>
                        <mxPoint x="1040" y="330" as="targetPoint"/>
                    </mxGeometry>
                </mxCell>
                <mxCell id="34" value="成功" style="edgeStyle=elbowEdgeStyle;elbow=horizontal;endArrow=classic;html=1;fontSize=14;exitX=0.5;exitY=1;exitDx=0;exitDy=0;" parent="1" source="26" edge="1">
                    <mxGeometry width="50" height="50" relative="1" as="geometry">
                        <mxPoint x="850" y="580" as="sourcePoint"/>
                        <mxPoint x="880" y="1120" as="targetPoint"/>
                        <Array as="points">
                            <mxPoint x="1060" y="830"/>
                            <mxPoint x="1060" y="720"/>
                        </Array>
                    </mxGeometry>
                </mxCell>
                <mxCell id="36" value="「編集」&lt;br&gt;クリック" style="rounded=0;whiteSpace=wrap;html=1;fontSize=14;" parent="1" vertex="1">
                    <mxGeometry x="550" y="300" width="120" height="60" as="geometry"/>
                </mxCell>
                <mxCell id="37" value="アカウント&lt;br&gt;詳細画面" style="rounded=0;whiteSpace=wrap;html=1;fontSize=14;fillColor=#dae8fc;strokeColor=#6c8ebf;gradientColor=#7ea6e0;" parent="1" vertex="1">
                    <mxGeometry x="550" y="240" width="120" height="60" as="geometry"/>
                </mxCell>
                <mxCell id="38" value="[更新」&lt;br&gt;クリック" style="rounded=0;whiteSpace=wrap;html=1;fontSize=14;" parent="1" vertex="1">
                    <mxGeometry x="550" y="560" width="120" height="60" as="geometry"/>
                </mxCell>
                <mxCell id="39" value="アカウント&lt;br&gt;編集画面" style="rounded=0;whiteSpace=wrap;html=1;fontSize=14;fillColor=#dae8fc;gradientColor=#7ea6e0;strokeColor=#6c8ebf;" parent="1" vertex="1">
                    <mxGeometry x="550" y="500" width="120" height="60" as="geometry"/>
                </mxCell>
                <mxCell id="40" value="「戻る」&lt;br&gt;クリック" style="rounded=0;whiteSpace=wrap;html=1;fontSize=14;" parent="1" vertex="1">
                    <mxGeometry x="550" y="620" width="120" height="60" as="geometry"/>
                </mxCell>
                <mxCell id="41" value="" style="endArrow=classic;html=1;fontSize=14;exitX=0.5;exitY=1;exitDx=0;exitDy=0;entryX=0.5;entryY=0;entryDx=0;entryDy=0;" parent="1" source="mN-mmOCK-x9OEGZpuf1X-58" target="39" edge="1">
                    <mxGeometry width="50" height="50" relative="1" as="geometry">
                        <mxPoint x="610" y="440" as="sourcePoint"/>
                        <mxPoint x="660" y="370" as="targetPoint"/>
                    </mxGeometry>
                </mxCell>
                <mxCell id="43" value="" style="edgeStyle=elbowEdgeStyle;elbow=horizontal;endArrow=classic;html=1;fontSize=14;exitX=0;exitY=0.5;exitDx=0;exitDy=0;entryX=0;entryY=0.5;entryDx=0;entryDy=0;" parent="1" source="40" target="37" edge="1">
                    <mxGeometry width="50" height="50" relative="1" as="geometry">
                        <mxPoint x="610" y="340" as="sourcePoint"/>
                        <mxPoint x="660" y="290" as="targetPoint"/>
                        <Array as="points">
                            <mxPoint x="480" y="420"/>
                        </Array>
                    </mxGeometry>
                </mxCell>
                <mxCell id="44" value="成功" style="edgeStyle=elbowEdgeStyle;elbow=horizontal;endArrow=classic;html=1;fontSize=14;entryX=0;entryY=0.5;entryDx=0;entryDy=0;exitX=0;exitY=0.5;exitDx=0;exitDy=0;" parent="1" source="38" target="37" edge="1">
                    <mxGeometry width="50" height="50" relative="1" as="geometry">
                        <mxPoint x="610" y="340" as="sourcePoint"/>
                        <mxPoint x="660" y="290" as="targetPoint"/>
                        <Array as="points">
                            <mxPoint x="510" y="390"/>
                        </Array>
                    </mxGeometry>
                </mxCell>
                <mxCell id="mN-mmOCK-x9OEGZpuf1X-46" value="発注詳細画面" style="rounded=0;whiteSpace=wrap;html=1;fontSize=14;fillColor=#dae8fc;gradientColor=#7ea6e0;strokeColor=#6c8ebf;" parent="1" vertex="1">
                    <mxGeometry x="120" y="480" width="120" height="60" as="geometry"/>
                </mxCell>
                <mxCell id="mN-mmOCK-x9OEGZpuf1X-47" value="「戻る」&lt;br&gt;クリック" style="rounded=0;whiteSpace=wrap;html=1;fontSize=14;" parent="1" vertex="1">
                    <mxGeometry x="120" y="540" width="120" height="60" as="geometry"/>
                </mxCell>
                <mxCell id="mN-mmOCK-x9OEGZpuf1X-53" value="管理選択画面" style="rounded=0;whiteSpace=wrap;html=1;fontSize=14;fillColor=#dae8fc;gradientColor=#7ea6e0;strokeColor=#6c8ebf;" parent="1" vertex="1">
                    <mxGeometry x="300" y="710" width="120" height="60" as="geometry"/>
                </mxCell>
                <mxCell id="mN-mmOCK-x9OEGZpuf1X-58" value="「退会」&lt;br&gt;クリック" style="rounded=0;whiteSpace=wrap;html=1;fontSize=14;" parent="1" vertex="1">
                    <mxGeometry x="550" y="360" width="120" height="60" as="geometry"/>
                </mxCell>
                <mxCell id="mN-mmOCK-x9OEGZpuf1X-59" value="" style="edgeStyle=elbowEdgeStyle;elbow=horizontal;endArrow=classic;html=1;fontSize=14;entryX=0;entryY=0.5;entryDx=0;entryDy=0;exitX=1;exitY=0.5;exitDx=0;exitDy=0;" parent="1" source="mN-mmOCK-x9OEGZpuf1X-58" target="15" edge="1">
                    <mxGeometry width="50" height="50" relative="1" as="geometry">
                        <mxPoint x="710" y="460" as="sourcePoint"/>
                        <mxPoint x="760" y="410" as="targetPoint"/>
                    </mxGeometry>
                </mxCell>
                <mxCell id="56" value="Text" style="edgeLabel;html=1;align=center;verticalAlign=middle;resizable=0;points=[];" parent="mN-mmOCK-x9OEGZpuf1X-59" vertex="1" connectable="0">
                    <mxGeometry x="-0.2667" y="-2" relative="1" as="geometry">
                        <mxPoint as="offset"/>
                    </mxGeometry>
                </mxCell>
                <mxCell id="mN-mmOCK-x9OEGZpuf1X-61" value="「管理」クリック" style="rounded=0;whiteSpace=wrap;html=1;fontSize=14;" parent="1" vertex="1">
                    <mxGeometry x="390" y="100" width="120" height="60" as="geometry"/>
                </mxCell>
                <mxCell id="mN-mmOCK-x9OEGZpuf1X-68" value="" style="edgeStyle=elbowEdgeStyle;elbow=vertical;endArrow=classic;html=1;fontSize=14;entryX=0.5;entryY=0;entryDx=0;entryDy=0;exitX=0.5;exitY=1;exitDx=0;exitDy=0;" parent="1" source="mN-mmOCK-x9OEGZpuf1X-61" target="mN-mmOCK-x9OEGZpuf1X-53" edge="1">
                    <mxGeometry width="50" height="50" relative="1" as="geometry">
                        <mxPoint x="90" y="450" as="sourcePoint"/>
                        <mxPoint x="140" y="400" as="targetPoint"/>
                        <Array as="points">
                            <mxPoint x="420" y="240"/>
                        </Array>
                    </mxGeometry>
                </mxCell>
                <mxCell id="mN-mmOCK-x9OEGZpuf1X-69" value="" style="edgeStyle=elbowEdgeStyle;elbow=vertical;endArrow=classic;html=1;fontSize=14;entryX=0.5;entryY=0;entryDx=0;entryDy=0;exitX=0.5;exitY=1;exitDx=0;exitDy=0;startArrow=none;" parent="1" source="3" target="11" edge="1">
                    <mxGeometry width="50" height="50" relative="1" as="geometry">
                        <mxPoint x="300" y="160" as="sourcePoint"/>
                        <mxPoint x="230" y="240" as="targetPoint"/>
                        <Array as="points">
                            <mxPoint x="50" y="180"/>
                        </Array>
                    </mxGeometry>
                </mxCell>
                <mxCell id="50" value="発注履歴一覧画面" style="rounded=0;whiteSpace=wrap;html=1;fillColor=#dae8fc;gradientColor=#7ea6e0;strokeColor=#6c8ebf;" parent="1" vertex="1">
                    <mxGeometry x="120" y="260" width="120" height="60" as="geometry"/>
                </mxCell>
                <mxCell id="53" value="「詳細」&lt;br&gt;クリック" style="rounded=0;whiteSpace=wrap;html=1;" parent="1" vertex="1">
                    <mxGeometry x="120" y="320" width="120" height="60" as="geometry"/>
                </mxCell>
                <mxCell id="58" value="「商品管理」&lt;br&gt;クリック" style="rounded=0;whiteSpace=wrap;html=1;fontSize=14;" parent="1" vertex="1">
                    <mxGeometry x="300" y="830" width="120" height="60" as="geometry"/>
                </mxCell>
                <mxCell id="59" value="「アカウント」&lt;br&gt;クリック" style="rounded=0;whiteSpace=wrap;html=1;fontSize=14;" parent="1" vertex="1">
                    <mxGeometry x="300" y="890" width="120" height="60" as="geometry"/>
                </mxCell>
                <mxCell id="60" value="" style="edgeStyle=elbowEdgeStyle;elbow=horizontal;endArrow=classic;html=1;exitX=1;exitY=0.5;exitDx=0;exitDy=0;entryX=0;entryY=0.5;entryDx=0;entryDy=0;" parent="1" source="59" target="37" edge="1">
                    <mxGeometry width="50" height="50" relative="1" as="geometry">
                        <mxPoint x="440" y="460" as="sourcePoint"/>
                        <mxPoint x="490" y="410" as="targetPoint"/>
                        <Array as="points">
                            <mxPoint x="460" y="390"/>
                        </Array>
                    </mxGeometry>
                </mxCell>
                <mxCell id="61" value="「受注履歴」&lt;br&gt;クリック" style="rounded=0;whiteSpace=wrap;html=1;fontSize=14;" parent="1" vertex="1">
                    <mxGeometry x="300" y="770" width="120" height="60" as="geometry"/>
                </mxCell>
                <mxCell id="63" value="&lt;span style=&quot;font-size: 14px&quot;&gt;「かごを確認」&lt;br&gt;&lt;/span&gt;クリック" style="rounded=0;whiteSpace=wrap;html=1;" parent="1" vertex="1">
                    <mxGeometry x="-280" y="360" width="120" height="60" as="geometry"/>
                </mxCell>
                <mxCell id="64" value="発注確認画面" style="rounded=0;whiteSpace=wrap;html=1;fillColor=#dae8fc;gradientColor=#7ea6e0;strokeColor=#6c8ebf;" parent="1" vertex="1">
                    <mxGeometry x="-620" y="620" width="120" height="60" as="geometry"/>
                </mxCell>
                <mxCell id="72" value="" style="endArrow=classic;html=1;exitX=0.5;exitY=1;exitDx=0;exitDy=0;" parent="1" source="63" edge="1">
                    <mxGeometry width="50" height="50" relative="1" as="geometry">
                        <mxPoint x="-220.5" y="530" as="sourcePoint"/>
                        <mxPoint x="-220" y="470" as="targetPoint"/>
                    </mxGeometry>
                </mxCell>
                <mxCell id="73" value="" style="edgeStyle=segmentEdgeStyle;endArrow=classic;html=1;exitX=1;exitY=0.5;exitDx=0;exitDy=0;" parent="1" edge="1" source="65">
                    <mxGeometry width="50" height="50" relative="1" as="geometry">
                        <mxPoint x="-280" y="780" as="sourcePoint"/>
                        <mxPoint x="-390" y="640" as="targetPoint"/>
                    </mxGeometry>
                </mxCell>
                <mxCell id="mN-mmOCK-x9OEGZpuf1X-60" value="「発注履歴」&lt;br&gt;クリック" style="rounded=0;whiteSpace=wrap;html=1;fontSize=14;" parent="1" vertex="1">
                    <mxGeometry x="270" y="100" width="120" height="60" as="geometry"/>
                </mxCell>
                <mxCell id="75" value="" style="edgeStyle=elbowEdgeStyle;elbow=vertical;endArrow=classic;html=1;fontSize=14;entryX=0.5;entryY=0;entryDx=0;entryDy=0;exitX=0.5;exitY=1;exitDx=0;exitDy=0;startArrow=none;" parent="1" source="mN-mmOCK-x9OEGZpuf1X-60" target="50" edge="1">
                    <mxGeometry width="50" height="50" relative="1" as="geometry">
                        <mxPoint x="220" y="170" as="sourcePoint"/>
                        <mxPoint x="-210" y="250" as="targetPoint"/>
                        <Array as="points">
                            <mxPoint x="150" y="210"/>
                        </Array>
                    </mxGeometry>
                </mxCell>
                <mxCell id="76" value="商品詳細ページ" style="rounded=0;whiteSpace=wrap;html=1;fillColor=#dae8fc;gradientColor=#7ea6e0;strokeColor=#6c8ebf;" parent="1" vertex="1">
                    <mxGeometry x="-80" y="240" width="120" height="60" as="geometry"/>
                </mxCell>
                <mxCell id="77" value="&lt;span style=&quot;font-size: 14px&quot;&gt;「戻る」&lt;br&gt;&lt;/span&gt;クリック" style="rounded=0;whiteSpace=wrap;html=1;" parent="1" vertex="1">
                    <mxGeometry x="-80" y="300" width="120" height="60" as="geometry"/>
                </mxCell>
                <mxCell id="79" value="" style="endArrow=classic;html=1;exitX=1;exitY=0.5;exitDx=0;exitDy=0;" parent="1" source="12" edge="1">
                    <mxGeometry width="50" height="50" relative="1" as="geometry">
                        <mxPoint x="-100" y="550" as="sourcePoint"/>
                        <mxPoint x="-80" y="270" as="targetPoint"/>
                    </mxGeometry>
                </mxCell>
                <mxCell id="80" value="" style="endArrow=classic;html=1;exitX=0;exitY=0.5;exitDx=0;exitDy=0;entryX=1;entryY=0.5;entryDx=0;entryDy=0;" parent="1" source="77" target="11" edge="1">
                    <mxGeometry width="50" height="50" relative="1" as="geometry">
                        <mxPoint x="-150" y="280" as="sourcePoint"/>
                        <mxPoint x="-70" y="280" as="targetPoint"/>
                    </mxGeometry>
                </mxCell>
                <mxCell id="81" value="&lt;span style=&quot;font-size: 14px&quot;&gt;「戻る」&lt;br&gt;&lt;/span&gt;クリック" style="rounded=0;whiteSpace=wrap;html=1;" parent="1" vertex="1">
                    <mxGeometry x="-620" y="680" width="120" height="60" as="geometry"/>
                </mxCell>
                <mxCell id="65" value="&lt;span style=&quot;font-size: 14px&quot;&gt;「注文を&lt;br&gt;確定する」&lt;br&gt;&lt;/span&gt;クリック" style="rounded=0;whiteSpace=wrap;html=1;" parent="1" vertex="1">
                    <mxGeometry x="-620" y="740" width="120" height="60" as="geometry"/>
                </mxCell>
                <mxCell id="84" value="「取り消し申請」&lt;br&gt;クリック&lt;br&gt;⇒受注側業者の管理ページに通知" style="rounded=0;whiteSpace=wrap;html=1;" parent="1" vertex="1">
                    <mxGeometry x="120" y="380" width="120" height="60" as="geometry"/>
                </mxCell>
                <mxCell id="86" value="" style="edgeStyle=elbowEdgeStyle;elbow=vertical;endArrow=classic;html=1;entryX=1;entryY=0.5;entryDx=0;entryDy=0;exitX=1;exitY=0.5;exitDx=0;exitDy=0;" parent="1" source="53" target="mN-mmOCK-x9OEGZpuf1X-47" edge="1">
                    <mxGeometry width="50" height="50" relative="1" as="geometry">
                        <mxPoint x="50" y="530" as="sourcePoint"/>
                        <mxPoint x="100" y="480" as="targetPoint"/>
                        <Array as="points">
                            <mxPoint x="290" y="460"/>
                        </Array>
                    </mxGeometry>
                </mxCell>
                <mxCell id="87" value="" style="edgeStyle=elbowEdgeStyle;elbow=vertical;endArrow=classic;html=1;entryX=0;entryY=0.5;entryDx=0;entryDy=0;exitX=0;exitY=0.5;exitDx=0;exitDy=0;" parent="1" source="mN-mmOCK-x9OEGZpuf1X-47" target="50" edge="1">
                    <mxGeometry width="50" height="50" relative="1" as="geometry">
                        <mxPoint x="40" y="380" as="sourcePoint"/>
                        <mxPoint x="40" y="600" as="targetPoint"/>
                        <Array as="points">
                            <mxPoint x="90" y="490"/>
                        </Array>
                    </mxGeometry>
                </mxCell>
                <mxCell id="88" value="受注履歴ページ" style="rounded=0;whiteSpace=wrap;html=1;fillColor=#dae8fc;gradientColor=#7ea6e0;strokeColor=#6c8ebf;" parent="1" vertex="1">
                    <mxGeometry x="120" y="620" width="120" height="60" as="geometry"/>
                </mxCell>
                <mxCell id="89" value="&lt;span style=&quot;font-size: 14px&quot;&gt;（権限者のみ）「ステータス」&lt;br&gt;&lt;/span&gt;プルダウン変更可能" style="rounded=0;whiteSpace=wrap;html=1;" parent="1" vertex="1">
                    <mxGeometry x="-70" y="740" width="120" height="60" as="geometry"/>
                </mxCell>
                <mxCell id="90" value="商品管理ページ" style="rounded=0;whiteSpace=wrap;html=1;fillColor=#dae8fc;gradientColor=#7ea6e0;strokeColor=#6c8ebf;" parent="1" vertex="1">
                    <mxGeometry x="120" y="820" width="120" height="60" as="geometry"/>
                </mxCell>
                <mxCell id="91" value="&lt;span style=&quot;font-size: 14px&quot;&gt;「編集」&lt;br&gt;&lt;/span&gt;クリック" style="rounded=0;whiteSpace=wrap;html=1;" parent="1" vertex="1">
                    <mxGeometry x="120" y="940" width="120" height="60" as="geometry"/>
                </mxCell>
                <mxCell id="93" value="" style="edgeStyle=elbowEdgeStyle;elbow=horizontal;endArrow=classic;html=1;exitX=0;exitY=0.5;exitDx=0;exitDy=0;entryX=1;entryY=0.5;entryDx=0;entryDy=0;" parent="1" source="61" target="88" edge="1">
                    <mxGeometry width="50" height="50" relative="1" as="geometry">
                        <mxPoint x="291" y="800" as="sourcePoint"/>
                        <mxPoint x="231" y="650" as="targetPoint"/>
                        <Array as="points">
                            <mxPoint x="262" y="680"/>
                        </Array>
                    </mxGeometry>
                </mxCell>
                <mxCell id="94" value="" style="edgeStyle=elbowEdgeStyle;elbow=horizontal;endArrow=classic;html=1;entryX=1;entryY=0.5;entryDx=0;entryDy=0;exitX=0;exitY=0.5;exitDx=0;exitDy=0;" parent="1" source="58" target="90" edge="1">
                    <mxGeometry width="50" height="50" relative="1" as="geometry">
                        <mxPoint x="10" y="930" as="sourcePoint"/>
                        <mxPoint x="60" y="880" as="targetPoint"/>
                    </mxGeometry>
                </mxCell>
                <mxCell id="95" value="&lt;span style=&quot;font-size: 14px&quot;&gt;「詳細」&lt;br&gt;&lt;/span&gt;クリック" style="rounded=0;whiteSpace=wrap;html=1;" parent="1" vertex="1">
                    <mxGeometry x="120" y="680" width="120" height="60" as="geometry"/>
                </mxCell>
                <mxCell id="96" value="&lt;span style=&quot;font-size: 14px&quot;&gt;「戻る」&lt;br&gt;&lt;/span&gt;クリック" style="rounded=0;whiteSpace=wrap;html=1;" parent="1" vertex="1">
                    <mxGeometry x="120" y="1000" width="120" height="60" as="geometry"/>
                </mxCell>
                <mxCell id="98" value="" style="edgeStyle=elbowEdgeStyle;elbow=horizontal;endArrow=classic;html=1;exitX=1;exitY=0.5;exitDx=0;exitDy=0;entryX=0;entryY=0.5;entryDx=0;entryDy=0;" parent="1" source="95" target="mN-mmOCK-x9OEGZpuf1X-53" edge="1">
                    <mxGeometry width="50" height="50" relative="1" as="geometry">
                        <mxPoint x="330" y="930" as="sourcePoint"/>
                        <mxPoint x="380" y="880" as="targetPoint"/>
                    </mxGeometry>
                </mxCell>
                <mxCell id="99" value="" style="edgeStyle=elbowEdgeStyle;elbow=horizontal;endArrow=classic;html=1;entryX=0;entryY=0.5;entryDx=0;entryDy=0;exitX=1;exitY=0.5;exitDx=0;exitDy=0;" parent="1" source="96" target="mN-mmOCK-x9OEGZpuf1X-53" edge="1">
                    <mxGeometry width="50" height="50" relative="1" as="geometry">
                        <mxPoint x="240" y="1000" as="sourcePoint"/>
                        <mxPoint x="380" y="880" as="targetPoint"/>
                    </mxGeometry>
                </mxCell>
                <mxCell id="100" value="商品編集ページ" style="rounded=0;whiteSpace=wrap;html=1;fillColor=#dae8fc;gradientColor=#7ea6e0;strokeColor=#6c8ebf;" parent="1" vertex="1">
                    <mxGeometry x="-70" y="930" width="120" height="60" as="geometry"/>
                </mxCell>
                <mxCell id="101" value="&lt;span style=&quot;font-size: 14px&quot;&gt;「更新」&lt;br&gt;&lt;/span&gt;クリック" style="rounded=0;whiteSpace=wrap;html=1;" parent="1" vertex="1">
                    <mxGeometry x="-70" y="990" width="120" height="60" as="geometry"/>
                </mxCell>
                <mxCell id="102" value="&lt;span style=&quot;font-size: 14px&quot;&gt;「戻る」&lt;br&gt;&lt;/span&gt;クリック" style="rounded=0;whiteSpace=wrap;html=1;" parent="1" vertex="1">
                    <mxGeometry x="-70" y="1050" width="120" height="60" as="geometry"/>
                </mxCell>
                <mxCell id="104" value="" style="edgeStyle=elbowEdgeStyle;elbow=horizontal;endArrow=classic;html=1;exitX=1;exitY=0.5;exitDx=0;exitDy=0;entryX=0;entryY=0.5;entryDx=0;entryDy=0;" parent="1" source="102" target="90" edge="1">
                    <mxGeometry width="50" height="50" relative="1" as="geometry">
                        <mxPoint x="330" y="930" as="sourcePoint"/>
                        <mxPoint x="380" y="880" as="targetPoint"/>
                        <Array as="points">
                            <mxPoint x="90" y="920"/>
                        </Array>
                    </mxGeometry>
                </mxCell>
                <mxCell id="105" value="受注詳細画面" style="rounded=0;whiteSpace=wrap;html=1;fontSize=14;fillColor=#dae8fc;gradientColor=#7ea6e0;strokeColor=#6c8ebf;" parent="1" vertex="1">
                    <mxGeometry x="-70" y="620" width="120" height="60" as="geometry"/>
                </mxCell>
                <mxCell id="106" value="「戻る」&lt;br&gt;クリック" style="rounded=0;whiteSpace=wrap;html=1;fontSize=14;" parent="1" vertex="1">
                    <mxGeometry x="-70" y="680" width="120" height="60" as="geometry"/>
                </mxCell>
                <mxCell id="107" value="" style="edgeStyle=elbowEdgeStyle;elbow=horizontal;endArrow=classic;html=1;exitX=1;exitY=0.5;exitDx=0;exitDy=0;entryX=0;entryY=0.5;entryDx=0;entryDy=0;" parent="1" source="106" edge="1">
                    <mxGeometry width="50" height="50" relative="1" as="geometry">
                        <mxPoint x="30" y="770" as="sourcePoint"/>
                        <mxPoint x="120" y="650" as="targetPoint"/>
                        <Array as="points">
                            <mxPoint x="90" y="720"/>
                        </Array>
                    </mxGeometry>
                </mxCell>
                <mxCell id="109" value="" style="edgeStyle=elbowEdgeStyle;elbow=horizontal;endArrow=classic;html=1;entryX=1;entryY=0.5;entryDx=0;entryDy=0;exitX=0;exitY=0.5;exitDx=0;exitDy=0;" parent="1" source="95" target="105" edge="1">
                    <mxGeometry width="50" height="50" relative="1" as="geometry">
                        <mxPoint x="-40" y="850" as="sourcePoint"/>
                        <mxPoint x="10" y="800" as="targetPoint"/>
                        <Array as="points">
                            <mxPoint x="80" y="710"/>
                        </Array>
                    </mxGeometry>
                </mxCell>
                <mxCell id="110" value="&lt;span style=&quot;font-size: 14px&quot;&gt;「新規登録」&lt;br&gt;&lt;/span&gt;クリック" style="rounded=0;whiteSpace=wrap;html=1;" parent="1" vertex="1">
                    <mxGeometry x="120" y="880" width="120" height="60" as="geometry"/>
                </mxCell>
                <mxCell id="111" value="商品登録ページ" style="rounded=0;whiteSpace=wrap;html=1;fillColor=#dae8fc;gradientColor=#7ea6e0;strokeColor=#6c8ebf;" parent="1" vertex="1">
                    <mxGeometry x="-250" y="820" width="120" height="60" as="geometry"/>
                </mxCell>
                <mxCell id="112" value="&lt;span style=&quot;font-size: 14px&quot;&gt;「戻る」&lt;br&gt;&lt;/span&gt;クリック" style="rounded=0;whiteSpace=wrap;html=1;" parent="1" vertex="1">
                    <mxGeometry x="-250" y="940" width="120" height="60" as="geometry"/>
                </mxCell>
                <mxCell id="113" value="&lt;span style=&quot;font-size: 14px&quot;&gt;「登録」&lt;br&gt;&lt;/span&gt;クリック" style="rounded=0;whiteSpace=wrap;html=1;" parent="1" vertex="1">
                    <mxGeometry x="-250" y="880" width="120" height="60" as="geometry"/>
                </mxCell>
                <mxCell id="114" value="" style="edgeStyle=elbowEdgeStyle;elbow=vertical;endArrow=classic;html=1;entryX=1;entryY=0.5;entryDx=0;entryDy=0;exitX=0;exitY=0.5;exitDx=0;exitDy=0;" parent="1" source="110" target="111" edge="1">
                    <mxGeometry width="50" height="50" relative="1" as="geometry">
                        <mxPoint x="100" y="919" as="sourcePoint"/>
                        <mxPoint x="10" y="900" as="targetPoint"/>
                    </mxGeometry>
                </mxCell>
                <mxCell id="115" value="" style="edgeStyle=elbowEdgeStyle;elbow=horizontal;endArrow=classic;html=1;exitX=1;exitY=0.5;exitDx=0;exitDy=0;" parent="1" source="112" edge="1">
                    <mxGeometry width="50" height="50" relative="1" as="geometry">
                        <mxPoint x="-40" y="950" as="sourcePoint"/>
                        <mxPoint x="120" y="850" as="targetPoint"/>
                        <Array as="points">
                            <mxPoint x="-80" y="920"/>
                        </Array>
                    </mxGeometry>
                </mxCell>
                <mxCell id="116" value="" style="edgeStyle=elbowEdgeStyle;elbow=horizontal;endArrow=classic;html=1;exitX=1;exitY=0.5;exitDx=0;exitDy=0;entryX=0;entryY=0.5;entryDx=0;entryDy=0;" parent="1" source="113" target="90" edge="1">
                    <mxGeometry width="50" height="50" relative="1" as="geometry">
                        <mxPoint x="-120" y="980" as="sourcePoint"/>
                        <mxPoint x="130" y="860" as="targetPoint"/>
                        <Array as="points">
                            <mxPoint x="-80" y="880"/>
                        </Array>
                    </mxGeometry>
                </mxCell>
                <mxCell id="117" value="" style="endArrow=classic;html=1;entryX=1;entryY=0.5;entryDx=0;entryDy=0;exitX=0;exitY=0.5;exitDx=0;exitDy=0;" parent="1" source="91" target="100" edge="1">
                    <mxGeometry width="50" height="50" relative="1" as="geometry">
                        <mxPoint x="10" y="950" as="sourcePoint"/>
                        <mxPoint x="60" y="900" as="targetPoint"/>
                    </mxGeometry>
                </mxCell>
                <mxCell id="118" value="" style="endArrow=classic;html=1;entryX=-0.014;entryY=0.644;entryDx=0;entryDy=0;entryPerimeter=0;" parent="1" target="11" edge="1">
                    <mxGeometry width="50" height="50" relative="1" as="geometry">
                        <mxPoint x="-320" y="280" as="sourcePoint"/>
                        <mxPoint x="-290" y="300" as="targetPoint"/>
                    </mxGeometry>
                </mxCell>
                <mxCell id="119" value="" style="edgeStyle=segmentEdgeStyle;endArrow=classic;html=1;exitX=1;exitY=0.5;exitDx=0;exitDy=0;" parent="1" edge="1" source="81">
                    <mxGeometry width="50" height="50" relative="1" as="geometry">
                        <mxPoint x="-280" y="710" as="sourcePoint"/>
                        <mxPoint x="-390" y="570" as="targetPoint"/>
                    </mxGeometry>
                </mxCell>
                <mxCell id="123" value="配送先確認画面" style="rounded=0;whiteSpace=wrap;html=1;fillColor=#dae8fc;gradientColor=#7ea6e0;strokeColor=#6c8ebf;" parent="1" vertex="1">
                    <mxGeometry x="-620" y="400" width="120" height="60" as="geometry"/>
                </mxCell>
                <mxCell id="124" value="&lt;span style=&quot;font-size: 14px&quot;&gt;「戻る」&lt;br&gt;&lt;/span&gt;クリック" style="rounded=0;whiteSpace=wrap;html=1;" parent="1" vertex="1">
                    <mxGeometry x="-620" y="460" width="120" height="60" as="geometry"/>
                </mxCell>
                <mxCell id="125" value="" style="endArrow=classic;html=1;" parent="1" edge="1">
                    <mxGeometry width="50" height="50" relative="1" as="geometry">
                        <mxPoint x="-560" y="580" as="sourcePoint"/>
                        <mxPoint x="-560.5" y="620" as="targetPoint"/>
                    </mxGeometry>
                </mxCell>
                <mxCell id="126" value="かご確認画面" style="rounded=0;whiteSpace=wrap;html=1;fillColor=#dae8fc;gradientColor=#7ea6e0;strokeColor=#6c8ebf;" vertex="1" parent="1">
                    <mxGeometry x="-280" y="470" width="120" height="60" as="geometry"/>
                </mxCell>
                <mxCell id="127" value="&lt;span style=&quot;font-size: 14px&quot;&gt;「購入に進む」&lt;br&gt;&lt;/span&gt;クリック" style="rounded=0;whiteSpace=wrap;html=1;" vertex="1" parent="1">
                    <mxGeometry x="-280" y="530" width="120" height="60" as="geometry"/>
                </mxCell>
                <mxCell id="129" value="" style="endArrow=classic;html=1;entryX=1;entryY=0.5;entryDx=0;entryDy=0;exitX=0;exitY=0.5;exitDx=0;exitDy=0;" edge="1" parent="1" source="127" target="123">
                    <mxGeometry width="50" height="50" relative="1" as="geometry">
                        <mxPoint x="-420" y="650" as="sourcePoint"/>
                        <mxPoint x="-370" y="600" as="targetPoint"/>
                    </mxGeometry>
                </mxCell>
                <mxCell id="130" value="&lt;span style=&quot;font-size: 14px&quot;&gt;「確認画面に進む」&lt;br&gt;&lt;/span&gt;クリック" style="rounded=0;whiteSpace=wrap;html=1;" vertex="1" parent="1">
                    <mxGeometry x="-620" y="520" width="120" height="60" as="geometry"/>
                </mxCell>
            </root>
        </mxGraphModel>
    </diagram>
</mxfile>